# xmcd
#
# Track frame offsets:
#	150
#	15052
#	28187
#	47032
#	66902
#	78502
#	103112
#	119680
#	134622
#	154232
#	179780
#	196927
#	214540
#	231395
#	249680
#
# Disc length: 3677
#
# Revision: 1
# Processed by: cddbd v1.5.1PL0 Copyright (c) Steve Scherf et al.
# Submitted via: MusicManager v5.1.0.0
# Normalized: r0:DSETVAR1
#
DISCID=da0e5b0f
DTITLE=Various Artist - The Blues Anthology
DYEAR=1900
DGENRE=blues
TTITLE0=Billy Boy Arnold and Ts McPhee - Don't stay Out All Night
TTITLE1=Muddy Waters - Hoochie Coochie Man
TTITLE2=Roy Gaines and The Crusaders - The First Rule Of Cheating
TTITLE3=Buster Brnton and Carey Bell - Leave Me Alone
TTITLE4=Screamin' Jack Hawkins - The Whammy
TTITLE5=Byther Smith - Hold That Train
TTITLE6=U.P. Wilson With Paul Orta And The Kingpins - Johnny Be Good
TTITLE7=Tommy Tucker - Drunk
TTITLE8=Big Walter Shaky Horton - Junkin' With Walter
TTITLE9=The Mighty Houserockers Featuring Les wilson - Play The Blues For you
TTITLE10=Memphis Slim And Matt Guitar Murphy - Wish Me well
TTITLE11=Carey Bell and Willie Wiliams - Showing Off My Car
TTITLE12=Peter Green and Mick Green - Chines White Boy
TTITLE13=Ko Ko Taylor - Wong Dang Doodle
TTITLE14=Earl Hooker - Two Bugs In A Rug
EXTD=
EXTT0=
EXTT1=
EXTT2=
EXTT3=
EXTT4=
EXTT5=
EXTT6=
EXTT7=
EXTT8=
EXTT9=
EXTT10=
EXTT11=
EXTT12=
EXTT13=
EXTT14=
PLAYORDER=
